<?xml version="1.0" standalone="no"?>
<!DOCTYPE svg PUBLIC "-//W3C//DTD SVG 20010904//EN"
 "http://www.w3.org/TR/2001/REC-SVG-20010904/DTD/svg10.dtd">
<svg version="1.0" xmlns="http://www.w3.org/2000/svg"
 width="1200.000000pt" height="1200.000000pt" viewBox="0 0 1200.000000 1200.000000"
 preserveAspectRatio="xMidYMid meet">

<g transform="translate(0.000000,1200.000000) scale(0.100000,-0.100000)"
fill="#000000" stroke="none">
<path d="M5786 8284 c-312 -56 -595 -238 -777 -498 -35 -51 -58 -75 -67 -71
-42 16 -211 35 -312 35 -340 0 -622 -118 -860 -360 -200 -202 -305 -425 -341
-720 -14 -116 -6 -248 26 -430 71 -405 249 -726 513 -924 86 -65 228 -146 256
-146 14 0 16 -33 16 -307 l0 -307 -44 -106 c-81 -192 -141 -436 -134 -551 3
-56 9 -75 34 -110 17 -23 50 -52 75 -65 l44 -24 1786 0 1786 0 44 23 c27 14
57 42 78 73 l33 49 -5 100 c-8 151 -82 418 -158 567 -18 34 -19 63 -19 368 0
264 3 330 13 330 22 0 208 99 277 148 343 242 530 640 530 1132 0 370 -112
659 -350 900 -238 242 -520 360 -860 360 -101 0 -270 -19 -312 -35 -9 -4 -32
20 -67 71 -184 263 -467 443 -785 499 -109 19 -313 18 -420 -1z m360 -489
c134 -25 265 -98 365 -202 73 -76 107 -129 154 -238 48 -114 74 -148 138 -180
79 -39 147 -35 259 15 129 58 200 73 338 68 92 -3 131 -10 195 -32 110 -38
209 -102 292 -190 83 -87 138 -180 172 -291 22 -72 24 -98 25 -255 0 -143 -4
-192 -22 -267 -68 -295 -245 -483 -551 -588 -128 -43 -333 -74 -503 -76 -46 0
-91 -4 -101 -8 -17 -6 -16 -8 10 -20 91 -41 280 -187 402 -311 89 -89 228
-266 281 -355 70 -119 90 -159 87 -168 -2 -6 -16 12 -32 39 -86 149 -279 367
-432 487 -160 126 -389 255 -544 306 l-66 22 -6 92 c-16 257 -177 465 -422
548 -99 33 -259 34 -362 1 -254 -79 -432 -320 -433 -583 l0 -56 -77 -28 c-170
-59 -384 -181 -543 -309 -152 -122 -342 -336 -424 -478 -39 -67 -53 -71 -20
-7 119 237 341 504 540 654 43 32 83 63 88 67 13 11 -31 56 -79 80 -29 15 -71
23 -155 29 -144 10 -203 21 -288 55 -261 103 -441 362 -496 716 -27 171 -29
229 -12 327 29 164 94 288 214 403 136 130 275 189 462 196 138 5 209 -10 338
-68 113 -50 180 -54 260 -14 61 30 92 67 122 144 42 107 96 196 159 263 175
185 412 261 667 212z m-3 -1883 c34 -17 76 -46 94 -64 46 -48 93 -143 93 -188
l0 -37 -47 10 c-27 5 -154 10 -283 10 -129 0 -256 -5 -282 -10 l-48 -10 0 36
c0 42 48 143 88 184 99 105 255 133 385 69z m151 -373 c454 -90 886 -376 1198
-790 54 -72 208 -304 208 -314 0 -3 20 -42 45 -87 45 -81 45 -82 13 -48 -18
19 -96 107 -173 195 -184 210 -457 488 -574 587 -247 206 -471 323 -828 433
-82 25 -152 48 -158 50 -25 12 179 -7 269 -26z"/>
</g>
</svg>
